<svg width="1579" height="119" viewBox="0 0 1579 119" fill="none" xmlns="http://www.w3.org/2000/svg">
<path d="M787 43C766.015 43 749 60.0145 749 81C749 101.986 766.015 119 787 119C807.986 119 825 101.986 825 81C825 60.0145 807.986 43 787 43ZM806.051 77.8333C805.899 74.5717 805.519 71.3892 804.923 68.3333H816.007C817.305 71.2942 818.176 74.483 818.508 77.8333H806.051V77.8333ZM818.505 84.1667C818.173 87.517 817.302 90.7058 816.004 93.6667H804.92C805.516 90.6108 805.899 87.4283 806.047 84.1667H818.505V84.1667ZM812.273 62H803.311C802.124 58.2095 800.541 54.742 798.685 51.5943C804.119 53.7603 808.803 57.3925 812.273 62V62ZM796.605 62H790.167V50.3657C792.83 53.564 794.999 57.5097 796.605 62ZM790.167 100H796.605C794.999 104.49 792.83 108.436 790.167 111.634V100ZM783.833 50.3657V62H777.396C779.001 57.5097 781.17 53.564 783.833 50.3657V50.3657ZM783.833 68.3333V77.8333H774.352C774.517 74.54 774.926 71.3607 775.584 68.3333H783.833ZM783.833 84.1667V93.6667H775.584C774.926 90.6393 774.52 87.46 774.352 84.1667H783.833ZM783.833 100V111.634C781.17 108.436 779.001 104.49 777.396 100H783.833ZM790.167 93.6667V84.1667H799.648C799.483 87.46 799.074 90.6393 798.416 93.6667H790.167ZM790.167 77.8333V68.3333H798.416C799.074 71.3607 799.48 74.54 799.648 77.8333H790.167ZM775.315 51.5943C773.459 54.742 771.876 58.2095 770.689 62H761.727C765.198 57.3925 769.881 53.7603 775.315 51.5943V51.5943ZM767.949 77.8333H755.495C755.827 74.483 756.698 71.2942 757.997 68.3333H769.08C768.481 71.3892 768.101 74.5717 767.949 77.8333ZM769.08 93.6667H757.997C756.698 90.7058 755.827 87.517 755.495 84.1667H767.953C768.101 87.4283 768.481 90.6108 769.08 93.6667ZM761.727 100H770.689C771.876 103.791 773.459 107.258 775.315 110.406C769.881 108.24 765.198 104.608 761.727 100ZM798.685 110.406C800.541 107.258 802.124 103.791 803.311 100H812.273C808.803 104.608 804.119 108.24 798.685 110.406V110.406Z" fill="#0CAD64" fill-opacity="0.12"/>
<path d="M1348 3C1327.01 3 1310 20.0145 1310 41C1310 61.9855 1327.01 79 1348 79C1368.99 79 1386 61.9855 1386 41C1386 20.0145 1368.99 3 1348 3ZM1367.05 37.8333C1366.9 34.5717 1366.52 31.3892 1365.92 28.3333H1377.01C1378.31 31.2942 1379.18 34.483 1379.51 37.8333H1367.05V37.8333ZM1379.51 44.1667C1379.17 47.517 1378.3 50.7058 1377 53.6667H1365.92C1366.52 50.6108 1366.9 47.4283 1367.05 44.1667H1379.51V44.1667ZM1373.27 22H1364.31C1363.12 18.2095 1361.54 14.742 1359.68 11.5943C1365.12 13.7603 1369.8 17.3925 1373.27 22V22ZM1357.6 22H1351.17V10.3657C1353.83 13.564 1356 17.5097 1357.6 22ZM1351.17 60H1357.6C1356 64.4903 1353.83 68.436 1351.17 71.6343V60ZM1344.83 10.3657V22H1338.4C1340 17.5097 1342.17 13.564 1344.83 10.3657V10.3657ZM1344.83 28.3333V37.8333H1335.35C1335.52 34.54 1335.93 31.3607 1336.58 28.3333H1344.83ZM1344.83 44.1667V53.6667H1336.58C1335.93 50.6393 1335.52 47.46 1335.35 44.1667H1344.83ZM1344.83 60V71.6343C1342.17 68.436 1340 64.4903 1338.4 60H1344.83ZM1351.17 53.6667V44.1667H1360.65C1360.48 47.46 1360.07 50.6393 1359.42 53.6667H1351.17ZM1351.17 37.8333V28.3333H1359.42C1360.07 31.3607 1360.48 34.54 1360.65 37.8333H1351.17ZM1336.32 11.5943C1334.46 14.742 1332.88 18.2095 1331.69 22H1322.73C1326.2 17.3925 1330.88 13.7603 1336.32 11.5943V11.5943ZM1328.95 37.8333H1316.49C1316.83 34.483 1317.7 31.2942 1319 28.3333H1330.08C1329.48 31.3892 1329.1 34.5717 1328.95 37.8333ZM1330.08 53.6667H1319C1317.7 50.7058 1316.83 47.517 1316.49 44.1667H1328.95C1329.1 47.4283 1329.48 50.6108 1330.08 53.6667ZM1322.73 60H1331.69C1332.88 63.7905 1334.46 67.258 1336.32 70.4057C1330.88 68.2397 1326.2 64.6075 1322.73 60ZM1359.68 70.4057C1361.54 67.258 1363.12 63.7905 1364.31 60H1373.27C1369.8 64.6075 1365.12 68.2397 1359.68 70.4057V70.4057Z" fill="#0CAD64" fill-opacity="0.12"/>
<path d="M227 0C206.015 0 189 17.0145 189 38C189 58.9855 206.015 76 227 76C247.986 76 265 58.9855 265 38C265 17.0145 247.986 0 227 0ZM246.051 34.8333C245.899 31.5717 245.519 28.3892 244.923 25.3333H256.007C257.305 28.2942 258.176 31.483 258.508 34.8333H246.051V34.8333ZM258.505 41.1667C258.173 44.517 257.302 47.7058 256.004 50.6667H244.92C245.516 47.6108 245.899 44.4283 246.047 41.1667H258.505V41.1667ZM252.273 19H243.311C242.124 15.2095 240.541 11.742 238.685 8.59433C244.119 10.7603 248.803 14.3925 252.273 19V19ZM236.605 19H230.167V7.36567C232.83 10.564 234.999 14.5097 236.605 19ZM230.167 57H236.605C234.999 61.4903 232.83 65.436 230.167 68.6343V57ZM223.833 7.36567V19H217.396C219.001 14.5097 221.17 10.564 223.833 7.36567V7.36567ZM223.833 25.3333V34.8333H214.352C214.517 31.54 214.926 28.3607 215.584 25.3333H223.833ZM223.833 41.1667V50.6667H215.584C214.926 47.6393 214.52 44.46 214.352 41.1667H223.833ZM223.833 57V68.6343C221.17 65.436 219.001 61.4903 217.396 57H223.833ZM230.167 50.6667V41.1667H239.648C239.483 44.46 239.074 47.6393 238.416 50.6667H230.167ZM230.167 34.8333V25.3333H238.416C239.074 28.3607 239.48 31.54 239.648 34.8333H230.167ZM215.315 8.59433C213.459 11.742 211.876 15.2095 210.689 19H201.727C205.198 14.3925 209.881 10.7603 215.315 8.59433V8.59433ZM207.949 34.8333H195.495C195.827 31.483 196.698 28.2942 197.997 25.3333H209.08C208.481 28.3892 208.101 31.5717 207.949 34.8333ZM209.08 50.6667H197.997C196.698 47.7058 195.827 44.517 195.495 41.1667H207.953C208.101 44.4283 208.481 47.6108 209.08 50.6667ZM201.727 57H210.689C211.876 60.7905 213.459 64.258 215.315 67.4057C209.881 65.2397 205.198 61.6075 201.727 57ZM238.685 67.4057C240.541 64.258 242.124 60.7905 243.311 57H252.273C248.803 61.6075 244.119 65.2397 238.685 67.4057V67.4057Z" fill="#0CAD64" fill-opacity="0.12"/>
<path d="M638.833 12H567.167C563.211 12 560 15.248 560 19.25V62.75C560 66.752 563.211 70 567.167 70H638.833C642.789 70 646 66.752 646 62.75V19.25C646 15.248 642.789 12 638.833 12ZM638.833 60.9375C638.833 61.938 638.031 62.75 637.042 62.75H568.958C567.969 62.75 567.167 61.938 567.167 60.9375V37.375H638.833V60.9375ZM638.833 26.5H567.167V21.0625C567.167 20.062 567.969 19.25 568.958 19.25H637.042C638.031 19.25 638.833 20.062 638.833 21.0625V26.5ZM606.583 48.25H574.333V44.625H606.583V48.25ZM595.833 55.5H574.333V51.875H595.833V55.5ZM631.667 48.25H620.917V44.625H631.667V48.25Z" fill="#0CAD64" fill-opacity="0.12"/>
<path d="M1199.83 52H1128.17C1124.21 52 1121 55.248 1121 59.25V102.75C1121 106.752 1124.21 110 1128.17 110H1199.83C1203.79 110 1207 106.752 1207 102.75V59.25C1207 55.248 1203.79 52 1199.83 52ZM1199.83 100.938C1199.83 101.938 1199.03 102.75 1198.04 102.75H1129.96C1128.97 102.75 1128.17 101.938 1128.17 100.938V77.375H1199.83V100.938ZM1199.83 66.5H1128.17V61.0625C1128.17 60.062 1128.97 59.25 1129.96 59.25H1198.04C1199.03 59.25 1199.83 60.062 1199.83 61.0625V66.5ZM1167.58 88.25H1135.33V84.625H1167.58V88.25ZM1156.83 95.5H1135.33V91.875H1156.83V95.5ZM1192.67 88.25H1181.92V84.625H1192.67V88.25Z" fill="#0CAD64" fill-opacity="0.12"/>
<path d="M78.8333 49H7.16667C3.21067 49 0 52.248 0 56.25V99.75C0 103.752 3.21067 107 7.16667 107H78.8333C82.7893 107 86 103.752 86 99.75V56.25C86 52.248 82.7893 49 78.8333 49ZM78.8333 97.9375C78.8333 98.938 78.0307 99.75 77.0417 99.75H8.95833C7.96933 99.75 7.16667 98.938 7.16667 97.9375V74.375H78.8333V97.9375ZM78.8333 63.5H7.16667V58.0625C7.16667 57.062 7.96933 56.25 8.95833 56.25H77.0417C78.0307 56.25 78.8333 57.062 78.8333 58.0625V63.5ZM46.5833 85.25H14.3333V81.625H46.5833V85.25ZM35.8333 92.5H14.3333V88.875H35.8333V92.5ZM71.6667 85.25H60.9167V81.625H71.6667V85.25Z" fill="#0CAD64" fill-opacity="0.12"/>
<path d="M973.729 21.6372L974.312 22.9789C975.211 22.8194 976.284 22.765 977.524 22.8817L978.028 25.1256C977.054 25.0011 976.019 24.8844 975.105 25.0789L974.756 25.1683C972.997 25.6467 973.558 27.3656 975.128 27.7817C977.714 28.3961 980.792 28.5906 982.01 31.3672C982.988 33.615 981.854 35.1511 979.958 35.89L980.542 37.2356L979.31 37.5L978.752 36.2206C977.471 36.4578 976.004 36.4267 974.657 36.0611L974.278 33.79C975.393 33.9689 976.773 34.1283 977.835 33.9067L978.54 33.6733C979.803 33.0317 979.416 31.41 977.539 31.025C976.148 30.7022 972.451 30.9433 971.074 27.7933C970.297 26.0122 970.873 24.1533 973.103 23.3056L972.492 21.9017L973.729 21.6372ZM988.213 27.9139C985.536 21.505 978.047 17.2156 971.495 18.3356C964.943 19.4556 961.8 25.5572 964.481 31.97C967.309 38.7328 975.431 43.065 982.116 41.3578C988.038 39.8489 990.761 34.0194 988.213 27.9139V27.9139ZM1003.57 6L1017.85 38.0172C997.248 54.44 969.869 37.8694 949.784 55.3656L935.505 23.3483C954.251 4.76333 980.144 21.5983 1003.57 6V6ZM1018 52.7211C992.001 68.0394 970.987 47.1833 944.063 76L927 37.2511L932.316 31.5656L946.751 64.2361L946.743 64.2672C974.972 42.5206 989.191 59.6978 1015.41 46.53C1016.52 49.0461 1017.55 51.7022 1018 52.7211V52.7211Z" fill="#0CAD64" fill-opacity="0.12"/>
<path d="M1534.73 61.6372L1535.31 62.9789C1536.21 62.8194 1537.28 62.765 1538.52 62.8817L1539.03 65.1256C1538.05 65.0011 1537.02 64.8844 1536.1 65.0789L1535.76 65.1683C1534 65.6467 1534.56 67.3656 1536.13 67.7817C1538.71 68.3961 1541.79 68.5906 1543.01 71.3672C1543.99 73.615 1542.85 75.1511 1540.96 75.89L1541.54 77.2356L1540.31 77.5L1539.75 76.2206C1538.47 76.4578 1537 76.4267 1535.66 76.0611L1535.28 73.79C1536.39 73.9689 1537.77 74.1283 1538.83 73.9067L1539.54 73.6733C1540.8 73.0317 1540.42 71.41 1538.54 71.025C1537.15 70.7022 1533.45 70.9433 1532.07 67.7933C1531.3 66.0122 1531.87 64.1533 1534.1 63.3056L1533.49 61.9017L1534.73 61.6372ZM1549.21 67.9139C1546.54 61.505 1539.05 57.2156 1532.5 58.3356C1525.94 59.4556 1522.8 65.5572 1525.48 71.97C1528.31 78.7328 1536.43 83.065 1543.12 81.3578C1549.04 79.8489 1551.76 74.0194 1549.21 67.9139V67.9139ZM1564.57 46L1578.85 78.0172C1558.25 94.44 1530.87 77.8694 1510.78 95.3656L1496.5 63.3483C1515.25 44.7633 1541.14 61.5983 1564.57 46V46ZM1579 92.7211C1553 108.039 1531.99 87.1833 1505.06 116L1488 77.2511L1493.32 71.5656L1507.75 104.236L1507.74 104.267C1535.97 82.5206 1550.19 99.6978 1576.41 86.53C1577.52 89.0461 1578.55 91.7022 1579 92.7211V92.7211Z" fill="#0CAD64" fill-opacity="0.12"/>
<path d="M413.729 58.6372L414.312 59.9789C415.211 59.8194 416.284 59.765 417.524 59.8817L418.028 62.1256C417.054 62.0011 416.019 61.8844 415.105 62.0789L414.756 62.1683C412.997 62.6467 413.558 64.3656 415.128 64.7817C417.714 65.3961 420.792 65.5906 422.01 68.3672C422.988 70.615 421.854 72.1511 419.958 72.89L420.542 74.2356L419.31 74.5L418.752 73.2206C417.471 73.4578 416.004 73.4267 414.657 73.0611L414.278 70.79C415.393 70.9689 416.773 71.1283 417.835 70.9067L418.54 70.6733C419.803 70.0317 419.416 68.41 417.539 68.025C416.148 67.7022 412.451 67.9433 411.074 64.7933C410.297 63.0122 410.873 61.1533 413.103 60.3056L412.492 58.9017L413.729 58.6372ZM428.213 64.9139C425.536 58.505 418.047 54.2156 411.495 55.3356C404.943 56.4556 401.8 62.5572 404.481 68.97C407.309 75.7328 415.431 80.065 422.116 78.3578C428.038 76.8489 430.761 71.0194 428.213 64.9139V64.9139ZM443.569 43L457.848 75.0172C437.248 91.44 409.869 74.8694 389.784 92.3656L375.505 60.3483C394.251 41.7633 420.144 58.5983 443.569 43V43ZM458 89.7211C432.001 105.039 410.987 84.1833 384.063 113L367 74.2511L372.316 68.5656L386.751 101.236L386.743 101.267C414.972 79.5206 429.191 96.6978 455.407 83.53C456.521 86.0461 457.549 88.7022 458 89.7211V89.7211Z" fill="#0CAD64" fill-opacity="0.12"/>
</svg>
