<svg width="29" height="35" viewBox="0 0 29 35" fill="none" xmlns="http://www.w3.org/2000/svg">
<path fill-rule="evenodd" clip-rule="evenodd" d="M25.6029 0C27.4754 0 29 1.61 29 3.605V35L25.4371 31.675L23.432 29.715L21.3109 27.6325L22.1891 30.87H3.39714C1.52457 30.87 0 29.26 0 27.265V3.605C0 1.61 1.52457 0 3.39714 0L25.6029 0ZM19.2063 22.855C22.8686 22.7325 24.2771 20.195 24.2771 20.195C24.2771 14.56 21.8909 9.9925 21.8909 9.9925C19.5046 8.1025 17.2343 8.155 17.2343 8.155L17.0023 8.435C19.8194 9.345 21.1286 10.6575 21.1286 10.6575C19.4051 9.66 17.7149 9.17 16.1406 8.9775C14.9474 8.8375 13.804 8.8725 12.7931 9.0125L12.5114 9.0475C11.9314 9.1 10.5229 9.3275 8.74971 10.15C8.13657 10.4475 7.772 10.6575 7.772 10.6575C7.772 10.6575 9.14743 9.275 12.1303 8.365L11.9646 8.155C11.9646 8.155 9.69429 8.1025 7.308 9.9925C7.308 9.9925 4.92171 14.56 4.92171 20.195C4.92171 20.195 6.31371 22.7325 9.976 22.855C9.976 22.855 10.5891 22.0675 11.0863 21.4025C8.98171 20.7375 8.18629 19.3375 8.18629 19.3375L8.65029 19.635L8.71657 19.6875L8.78148 19.7269L8.80081 19.7356L8.86571 19.775C9.28 20.02 9.69429 20.2125 10.0754 20.37C10.7549 20.65 11.5669 20.93 12.5114 21.1225C13.7543 21.3675 15.2126 21.455 16.8034 21.14C17.5823 21 18.3777 20.755 19.2063 20.3875C19.7863 20.16 20.4326 19.8275 21.112 19.355C21.112 19.355 20.2834 20.79 18.1126 21.4375C18.6097 22.1025 19.2063 22.855 19.2063 22.855ZM11.5006 14.6825C10.556 14.6825 9.81029 15.5575 9.81029 16.625C9.81029 17.6925 10.5726 18.5675 11.5006 18.5675C12.4451 18.5675 13.1909 17.6925 13.1909 16.625C13.2074 15.5575 12.4451 14.6825 11.5006 14.6825ZM17.5491 14.6825C16.6046 14.6825 15.8589 15.5575 15.8589 16.625C15.8589 17.6925 16.6211 18.5675 17.5491 18.5675C18.4937 18.5675 19.2394 17.6925 19.2394 16.625C19.2394 15.5575 18.4937 14.6825 17.5491 14.6825Z" fill="#18814F"/>
</svg>
