<svg width="37" height="29" viewBox="0 0 37 29" fill="none" xmlns="http://www.w3.org/2000/svg">
<path d="M37 3.43319C35.6387 4.01605 34.1757 4.40858 32.6402 4.58552C34.208 3.68001 35.4121 2.24518 35.9779 0.535275C34.5117 1.37387 32.8868 1.98349 31.1571 2.31209C29.7742 0.889151 27.7993 0 25.6163 0C20.7154 0 17.114 4.41007 18.221 8.98816C11.914 8.68335 6.32083 5.76907 2.57612 1.33967C0.587375 4.63013 1.54475 8.93463 4.92408 11.1144C3.6815 11.0757 2.50983 10.7471 1.48771 10.1985C1.40446 13.59 3.92508 16.763 7.57575 17.4693C6.50737 17.7488 5.33725 17.8142 4.14708 17.5942C5.11217 20.5025 7.91492 22.6183 11.2387 22.6778C8.0475 25.091 4.02683 26.169 0 25.711C3.35929 27.7882 7.35067 29 11.6365 29C25.7304 29 33.6931 17.5198 33.2121 7.22324C34.6952 6.18986 35.9825 4.90074 37 3.43319Z" fill="#18814F"/>
</svg>
